<?xml version="1.0" encoding="iso-8859-1"?>
<!-- Generator: Adobe Illustrator 19.0.0, SVG Export Plug-In . SVG Version: 6.00 Build 0)  -->
<svg version="1.1" id="Capa_1" xmlns="http://www.w3.org/2000/svg" xmlns:xlink="http://www.w3.org/1999/xlink" x="0px" y="0px"
	 viewBox="0 0 512 512" style="enable-background:new 0 0 512 512;" xml:space="preserve">
<path style="fill:#FEDB51;" d="M416.032,108.579c1.54-1.15,3.02-2.42,4.42-3.82c15.621-15.621,15.621-40.944,0-56.575
	c-15.631-15.621-40.954-15.621-56.575,0c-1.4,1.4-2.67,2.88-3.82,4.42C286.22,12.771,175.491,37.993,94.584,118.91
	C13.667,199.817-11.555,309.966,28.278,383.812c-1.54,1.14-2.45,2.42-3.84,3.82c-15.631,15.621-15.631,40.944,0,56.565
	c15.621,15.631,40.944,15.631,56.565,0c1.4-1.39,2.68-2.87,3.82-4.41c39.473,21.292,89.308,23.992,139.512,9.551l0.01-0.01
	l181.186-151.413C439.774,232.169,444.404,161.163,416.032,108.579z"/>
<path style="fill:#FEA832;" d="M141.718,297.915c0,99.146,80.366,180.015,180.015,180.015c99.419,0,180.015-80.597,180.015-180.015
	H141.718z"/>
<path style="fill:#FFC478;" d="M181.721,297.915c0,77.205,62.803,140.012,140.012,140.012c77.205,0,140.012-62.803,140.012-140.012
	C446.089,297.915,196.689,297.915,181.721,297.915z"/>
<path d="M330.984,107.899c5.52,0,10.001-4.48,10.001-10.001s-4.48-10.001-10.001-10.001c-5.52,0-10.001,4.48-10.001,10.001
	S325.464,107.899,330.984,107.899z"/>
<path d="M290.981,87.897c5.52,0,10.001-4.48,10.001-10.001c0-5.52-4.48-10.001-10.001-10.001c-5.52,0-10.001,4.48-10.001,10.001
	C280.98,83.417,285.46,87.897,290.981,87.897z"/>
<path d="M290.981,127.9c5.52,0,10.001-4.48,10.001-10.001s-4.48-10.001-10.001-10.001c-5.52,0-10.001,4.48-10.001,10.001
	S285.46,127.9,290.981,127.9z"/>
<path d="M250.977,87.897c5.52,0,10.001-4.48,10.001-10.001c0-5.52-4.48-10.001-10.001-10.001s-10.001,4.48-10.001,10.001
	C240.977,83.417,245.457,87.897,250.977,87.897z"/>
<path d="M110.395,147.902c-5.52,0-10.001,4.48-10.001,10.001s4.48,10.001,10.001,10.001s10.001-4.48,10.001-10.001
	S115.916,147.902,110.395,147.902z"/>
<path d="M501.999,287.914H421.74c28.113-62.167,30.731-126.8,6.93-177.002c18.591-19.557,18.293-50.599-0.898-69.802
	c-19.198-19.187-50.24-19.484-69.8-0.891c-37.085-17.552-82.932-20.941-130.114-9.461C177.558,42.995,127.805,71.79,87.763,111.837
	C47.704,151.891,18.909,201.54,6.684,251.638c-11.516,47.188-8.06,93.106,9.654,130.247c-18.008,19.341-18.078,50.042,1.276,69.381
	c19.32,19.336,50.305,19.463,69.786,0.905c42.012,19.924,90.715,20.062,135.635,7.977c29.757,18.187,63.865,27.782,98.949,27.782
	C426.76,487.93,512,402.69,512,297.914C512,292.393,507.521,287.914,501.999,287.914z M237.436,396.607l74.546-74.546v105.485
	C284.377,425.45,258.477,414.701,237.436,396.607z M223.292,382.462c-18.095-21.042-28.843-46.942-30.939-74.546h105.485
	L223.292,382.462z M331.984,322.06l74.546,74.546c-21.042,18.095-46.942,28.843-74.546,30.939V322.06z M420.675,382.462
	l-74.546-74.646c21.448,0,82.197,0,105.485,0C449.518,335.421,438.77,361.422,420.675,382.462z M89.821,430.986
	c-4.375-2.358-9.823-1.146-12.784,2.85c-10.768,14.548-32.218,16.356-45.279,3.288c-11.688-11.682-11.786-30.638,0.03-42.446
	c1.198-1.208,2.271-2.517,2.693-2.828c3.996-2.96,5.21-8.407,2.849-12.784c-38.276-70.961-11.119-177.398,64.576-253.085
	c75.804-75.816,182.481-102.97,253.653-64.576c4.366,2.354,9.796,1.156,12.763-2.819c0.884-1.185,1.853-2.306,2.877-3.33
	c11.695-11.694,30.731-11.693,42.43-0.002c11.696,11.703,11.697,30.739,0.005,42.432c-1.027,1.026-2.148,1.995-3.333,2.879
	c-3.975,2.966-5.174,8.398-2.819,12.763c25.751,47.726,22.738,112.611-7.849,174.587H141.968c-5.522,0-10.001,4.478-10.001,10.001
	c0,57.428,25.552,110.816,69.281,146.727C160.043,452.51,121.078,447.847,89.821,430.986z M321.984,467.93
	c-32.757,0-64.56-9.339-91.97-27.007c-0.001,0-0.001-0.001-0.002-0.001c-46.049-29.672-74.611-78.851-77.753-133.005h20.049
	c2.379,36.253,17.659,70.042,43.646,96.029c28.363,28.362,66.02,43.983,106.03,43.983c80.362,0,144.611-62.96,149.676-140.112
	h20.048C486.512,396.924,412.371,467.93,321.984,467.93z"/>
<path d="M93.073,182.386c-4.619-3.033-10.818-1.746-13.849,2.869c-33.886,51.601-46.8,108.103-35.434,155.017
	c1.108,4.576,5.201,7.648,9.712,7.648c6.491,0,11.25-6.076,9.728-12.357c-9.92-40.943,2.31-93.029,32.714-139.328
	C98.975,191.618,97.69,185.418,93.073,182.386z"/>
<g>
</g>
<g>
</g>
<g>
</g>
<g>
</g>
<g>
</g>
<g>
</g>
<g>
</g>
<g>
</g>
<g>
</g>
<g>
</g>
<g>
</g>
<g>
</g>
<g>
</g>
<g>
</g>
<g>
</g>
</svg>
