<?xml version="1.0" standalone="no"?>
<!DOCTYPE svg PUBLIC "-//W3C//DTD SVG 20010904//EN"
 "http://www.w3.org/TR/2001/REC-SVG-20010904/DTD/svg10.dtd">
<svg version="1.0" xmlns="http://www.w3.org/2000/svg"
 width="700.000000pt" height="700.000000pt" viewBox="0 0 700.000000 700.000000"
 preserveAspectRatio="xMidYMid meet">
<metadata>
Created by potrace 1.11, written by Peter Selinger 2001-2013
</metadata>
<g transform="translate(0.000000,700.000000) scale(0.100000,-0.100000)"
fill="#000000" stroke="none">
<path d="M3659 6666 c-2 -2 -44 -7 -92 -11 -49 -3 -98 -8 -110 -10 -12 -2 -53
-9 -92 -15 -38 -6 -110 -20 -160 -31 -110 -25 -106 -24 -130 -32 -11 -3 -31
-8 -45 -11 -14 -3 -61 -16 -105 -29 -237 -73 -392 -137 -630 -257 -113 -58
-341 -188 -370 -212 -5 -5 -41 -29 -80 -55 -111 -73 -280 -203 -407 -312 -653
-563 -1136 -1319 -1332 -2081 -31 -120 -40 -161 -61 -275 -3 -16 -8 -50 -11
-75 -3 -25 -7 -51 -9 -58 -19 -54 -27 -534 -12 -652 4 -30 10 -75 13 -100 23
-179 78 -384 155 -572 l41 -98 -30 -38 c-53 -68 -102 -163 -124 -241 -29 -100
-31 -278 -5 -364 66 -217 213 -381 412 -458 99 -39 131 -44 260 -43 158 0 275
39 398 132 59 45 68 49 89 38 153 -79 467 -166 688 -190 204 -22 485 -23 650
-1 144 18 321 51 430 79 l60 16 52 -32 c200 -119 462 -222 718 -282 110 -26
130 -29 300 -51 101 -12 503 -14 560 -2 14 3 48 8 75 11 244 27 544 121 810
253 396 196 741 503 1009 896 25 38 46 70 46 72 0 2 19 36 43 77 42 71 56 99
123 244 36 80 120 321 129 374 3 18 8 36 10 40 2 4 7 21 10 38 3 18 12 63 20
101 8 37 17 97 21 132 3 35 8 67 10 71 11 18 14 296 4 323 -14 36 -53 73 -88
82 -15 4 -276 7 -579 7 -304 0 -553 3 -553 6 0 3 19 48 41 100 44 102 127 342
159 462 25 91 76 346 84 413 21 193 25 254 26 395 2 349 -68 707 -191 979
l-29 63 29 34 c92 104 150 257 156 414 5 116 -16 214 -72 329 -86 179 -257
314 -456 360 -196 46 -421 -5 -581 -133 -38 -30 -68 -35 -91 -15 -18 14 -184
75 -280 102 -103 29 -264 63 -345 72 -30 4 -66 9 -80 12 -30 6 -475 14 -481 9z"/>
</g>
</svg>
